<svg width="860" height="479" viewBox="0 0 860 479" fill="none" xmlns="http://www.w3.org/2000/svg">
<g id="logo">
<g id="BG">
<g id="Vector 10">
<path d="M760.5 145C733.3 138.6 707.167 163 697.5 176C677 207 795 237 797 221C799 205 794.5 153 760.5 145Z" fill="#F1B456"/>
<path d="M701.874 155.436L696.663 162.632C694.956 164.989 691.605 165.396 689.383 163.517L670.734 147.736C668.868 146.157 668.417 143.461 669.668 141.361L677.616 128.02C679.454 124.935 683.848 124.736 685.958 127.642L701.871 149.566C703.141 151.316 703.142 153.685 701.874 155.436Z" fill="#F1B456"/>
<path d="M728.263 136.624L719.65 142.277C717.353 143.784 714.27 143.156 712.747 140.87L696.089 115.883C693.795 112.443 696.43 107.865 700.556 108.119L719.653 109.294C721.678 109.419 723.426 110.754 724.08 112.675L730.254 130.834C730.987 132.992 730.169 135.374 728.263 136.624Z" fill="#F1B456"/>
<path d="M760.249 135.846L749.267 134.877C746.811 134.66 744.88 132.686 744.717 130.226L741.579 82.7626C741.324 78.8953 745.345 76.2728 748.666 78.2713C760.396 85.3307 775.747 96.8793 778 107.5C780.615 119.829 770.493 129.919 763.443 134.999C762.52 135.664 761.382 135.946 760.249 135.846Z" fill="#F1B456"/>
<path d="M789.308 156.711L784.781 149.922C783.065 147.347 784.073 143.85 786.907 142.607C792.558 140.128 799.687 137.068 804.087 135.379C805.595 134.8 807.294 135.048 808.53 136.087C817.162 143.342 819.654 152.422 819.852 158.683C819.937 161.381 817.389 163.136 814.729 162.677L792.618 158.865C791.266 158.632 790.069 157.853 789.308 156.711Z" fill="#F1B456"/>
<path d="M836.977 190.583C832.422 184.118 818.562 181.52 808.172 180.759C804.843 180.515 802.408 183.722 803.023 187.003C803.409 189.058 803.743 191.308 803.901 193.473C804.018 195.059 804.758 196.545 805.995 197.545C817.488 206.842 834.915 226.879 833.5 216.5C832.183 206.841 834.721 199.495 837.052 194.463C837.636 193.201 837.777 191.719 836.977 190.583Z" fill="#F1B456"/>
<path d="M760.5 145C733.3 138.6 707.167 163 697.5 176C677 207 795 237 797 221C799 205 794.5 153 760.5 145Z" stroke="black" stroke-width="6"/>
<path d="M701.874 155.436L696.663 162.632C694.956 164.989 691.605 165.396 689.383 163.517L670.734 147.736C668.868 146.157 668.417 143.461 669.668 141.361L677.616 128.02C679.454 124.935 683.848 124.736 685.958 127.642L701.871 149.566C703.141 151.316 703.142 153.685 701.874 155.436Z" stroke="black" stroke-width="6"/>
<path d="M728.263 136.624L719.65 142.277C717.353 143.784 714.27 143.156 712.747 140.87L696.089 115.883C693.795 112.443 696.43 107.865 700.556 108.119L719.653 109.294C721.678 109.419 723.426 110.754 724.08 112.675L730.254 130.834C730.987 132.992 730.169 135.374 728.263 136.624Z" stroke="black" stroke-width="6"/>
<path d="M760.249 135.846L749.267 134.877C746.811 134.66 744.88 132.686 744.717 130.226L741.579 82.7626C741.324 78.8953 745.345 76.2728 748.666 78.2713C760.396 85.3307 775.747 96.8793 778 107.5C780.615 119.829 770.493 129.919 763.443 134.999C762.52 135.664 761.382 135.946 760.249 135.846Z" stroke="black" stroke-width="6"/>
<path d="M789.308 156.711L784.781 149.922C783.065 147.347 784.073 143.85 786.907 142.607C792.558 140.128 799.687 137.068 804.087 135.379C805.595 134.8 807.294 135.048 808.53 136.087C817.162 143.342 819.654 152.422 819.852 158.683C819.937 161.381 817.389 163.136 814.729 162.677L792.618 158.865C791.266 158.632 790.069 157.853 789.308 156.711Z" stroke="black" stroke-width="6"/>
<path d="M836.977 190.583C832.422 184.118 818.562 181.52 808.172 180.759C804.843 180.515 802.408 183.722 803.023 187.003C803.409 189.058 803.743 191.308 803.901 193.473C804.018 195.059 804.758 196.545 805.995 197.545C817.488 206.842 834.915 226.879 833.5 216.5C832.183 206.841 834.721 199.495 837.052 194.463C837.636 193.201 837.777 191.719 836.977 190.583Z" stroke="black" stroke-width="6"/>
</g>
<g id="Vector 9">
<mask id="path-2-outside-1_6_27" maskUnits="userSpaceOnUse" x="36.5466" y="33" width="768" height="399" fill="black">
<rect fill="white" x="36.5466" y="33" width="768" height="399"/>
<path d="M102.839 419.974C41.1099 417.115 42.5053 292.851 44 251C47.5 222.333 55.4 159 59 135C63.106 107.627 67.212 79.0042 90.3098 41.9162C92.7345 38.0229 100.147 39.0306 102.49 42.9733C112.232 59.364 134.347 83.1458 154.037 97.8584C157.781 100.657 156.565 107.423 152.196 109.085C150.684 109.66 149.242 110.3 148 111C144.124 113.184 139.57 117.433 137.172 119.802C136.098 120.863 135.618 122.369 135.822 123.866L143.372 179.382C143.726 181.983 146.031 183.868 148.65 183.698L177.868 181.801C180.48 181.631 182.518 179.488 182.558 176.871C182.83 159.09 183.81 128.874 186.087 116.908C186.323 115.665 187.113 114.606 188.166 113.904C231.174 85.2116 233.006 52.9367 238.991 46.3378C239.575 45.6933 240.48 45.4377 241.264 45.8154C250.228 50.1339 263.305 97.7067 270.668 120.476C271.422 122.808 270.411 125.347 268.248 126.501L257.339 132.319C257.113 132.439 256.889 132.582 256.686 132.739C246.981 140.26 252.255 147.893 257.001 152.954C258.461 154.512 260.814 154.845 262.762 153.974C306.159 134.569 322.556 163.66 326.279 185.227C326.8 188.246 329.692 190.375 332.677 189.681L371.68 180.62C374.35 179.999 377.022 181.645 377.67 184.308L380.866 197.451C380.955 197.816 381.17 198.233 381.486 198.032C382.328 197.494 384.238 194.725 387.83 186.396C387.941 186.137 388.074 185.877 388.242 185.65C392.93 179.3 407.685 182.158 418 191C427.401 200.809 439.207 213.692 445.607 220.473C447.476 222.452 450.561 222.472 452.672 220.754C475.751 201.974 510.193 202.093 528.32 206.612C530.96 207.271 533.75 205.931 534.925 203.477C549.651 172.741 583.545 178.379 607.51 179.372C610.456 179.494 612.696 176.908 612.971 173.972C615.852 143.151 671.362 149.593 674.598 174.699C675.168 179.125 679.701 183.843 683.954 182.492C703.81 176.185 705.566 179.95 707.893 184.94L707.919 184.997C708.785 186.854 710.928 187.713 712.947 187.362C828.815 167.193 793.985 304.092 792.5 313.5C791 323 745 332 737.5 313.5C730 295 719.5 300.5 723.5 316C726.551 327.824 682.546 335.867 670.555 336.89C669.233 337.002 667.987 337.551 666.969 338.401C655.128 348.285 637.981 341.969 630.312 337.196C630.099 337.064 629.885 336.951 629.661 336.84C627.95 335.993 623.691 333.39 617.512 328.336C616.847 327.792 616.061 327.418 615.216 327.266C563.968 318.009 502.541 318.558 507.5 325.5C512.229 332.121 507.565 340.978 500.7 345.726C499.932 346.257 498.999 346.486 498.065 346.495C477.171 346.687 463.317 358.461 457.191 366.671C455.796 368.541 453.414 369.53 451.176 368.872C443.567 366.635 432.321 363.371 424.309 361.173C421.134 360.302 418.073 362.752 417.799 366.033C416.47 381.954 409.25 390.772 405.004 393.674C404.674 393.9 404.298 394.067 403.913 394.175C375.621 402.07 348.301 335.093 346.5 348.5C337.5 415.5 292 418 286 416.5C282.242 415.56 280.078 410.269 279.075 406.096C278.625 404.224 277.336 402.605 275.448 402.225C274.445 402.024 273.287 401.833 272.04 401.699C269.928 401.47 268.056 402.859 267.19 404.8C261.565 417.409 251.43 423.346 245.779 425.144C244.947 425.408 244.031 425.36 243.194 425.113C179.742 406.411 171.247 417.294 175.33 287.77C175.419 284.945 173.162 282.5 170.335 282.5H152.436C149.699 282.5 147.472 284.778 147.432 287.514C145.791 401.088 138.098 411.982 104.141 419.853C103.723 419.949 103.267 419.994 102.839 419.974Z"/>
</mask>
<path d="M102.839 419.974C41.1099 417.115 42.5053 292.851 44 251C47.5 222.333 55.4 159 59 135C63.106 107.627 67.212 79.0042 90.3098 41.9162C92.7345 38.0229 100.147 39.0306 102.49 42.9733C112.232 59.364 134.347 83.1458 154.037 97.8584C157.781 100.657 156.565 107.423 152.196 109.085C150.684 109.66 149.242 110.3 148 111C144.124 113.184 139.57 117.433 137.172 119.802C136.098 120.863 135.618 122.369 135.822 123.866L143.372 179.382C143.726 181.983 146.031 183.868 148.65 183.698L177.868 181.801C180.48 181.631 182.518 179.488 182.558 176.871C182.83 159.09 183.81 128.874 186.087 116.908C186.323 115.665 187.113 114.606 188.166 113.904C231.174 85.2116 233.006 52.9367 238.991 46.3378C239.575 45.6933 240.48 45.4377 241.264 45.8154C250.228 50.1339 263.305 97.7067 270.668 120.476C271.422 122.808 270.411 125.347 268.248 126.501L257.339 132.319C257.113 132.439 256.889 132.582 256.686 132.739C246.981 140.26 252.255 147.893 257.001 152.954C258.461 154.512 260.814 154.845 262.762 153.974C306.159 134.569 322.556 163.66 326.279 185.227C326.8 188.246 329.692 190.375 332.677 189.681L371.68 180.62C374.35 179.999 377.022 181.645 377.67 184.308L380.866 197.451C380.955 197.816 381.17 198.233 381.486 198.032C382.328 197.494 384.238 194.725 387.83 186.396C387.941 186.137 388.074 185.877 388.242 185.65C392.93 179.3 407.685 182.158 418 191C427.401 200.809 439.207 213.692 445.607 220.473C447.476 222.452 450.561 222.472 452.672 220.754C475.751 201.974 510.193 202.093 528.32 206.612C530.96 207.271 533.75 205.931 534.925 203.477C549.651 172.741 583.545 178.379 607.51 179.372C610.456 179.494 612.696 176.908 612.971 173.972C615.852 143.151 671.362 149.593 674.598 174.699C675.168 179.125 679.701 183.843 683.954 182.492C703.81 176.185 705.566 179.95 707.893 184.94L707.919 184.997C708.785 186.854 710.928 187.713 712.947 187.362C828.815 167.193 793.985 304.092 792.5 313.5C791 323 745 332 737.5 313.5C730 295 719.5 300.5 723.5 316C726.551 327.824 682.546 335.867 670.555 336.89C669.233 337.002 667.987 337.551 666.969 338.401C655.128 348.285 637.981 341.969 630.312 337.196C630.099 337.064 629.885 336.951 629.661 336.84C627.95 335.993 623.691 333.39 617.512 328.336C616.847 327.792 616.061 327.418 615.216 327.266C563.968 318.009 502.541 318.558 507.5 325.5C512.229 332.121 507.565 340.978 500.7 345.726C499.932 346.257 498.999 346.486 498.065 346.495C477.171 346.687 463.317 358.461 457.191 366.671C455.796 368.541 453.414 369.53 451.176 368.872C443.567 366.635 432.321 363.371 424.309 361.173C421.134 360.302 418.073 362.752 417.799 366.033C416.47 381.954 409.25 390.772 405.004 393.674C404.674 393.9 404.298 394.067 403.913 394.175C375.621 402.07 348.301 335.093 346.5 348.5C337.5 415.5 292 418 286 416.5C282.242 415.56 280.078 410.269 279.075 406.096C278.625 404.224 277.336 402.605 275.448 402.225C274.445 402.024 273.287 401.833 272.04 401.699C269.928 401.47 268.056 402.859 267.19 404.8C261.565 417.409 251.43 423.346 245.779 425.144C244.947 425.408 244.031 425.36 243.194 425.113C179.742 406.411 171.247 417.294 175.33 287.77C175.419 284.945 173.162 282.5 170.335 282.5H152.436C149.699 282.5 147.472 284.778 147.432 287.514C145.791 401.088 138.098 411.982 104.141 419.853C103.723 419.949 103.267 419.994 102.839 419.974Z" fill="white"/>
<path d="M102.839 419.974C41.1099 417.115 42.5053 292.851 44 251C47.5 222.333 55.4 159 59 135C63.106 107.627 67.212 79.0042 90.3098 41.9162C92.7345 38.0229 100.147 39.0306 102.49 42.9733C112.232 59.364 134.347 83.1458 154.037 97.8584C157.781 100.657 156.565 107.423 152.196 109.085C150.684 109.66 149.242 110.3 148 111C144.124 113.184 139.57 117.433 137.172 119.802C136.098 120.863 135.618 122.369 135.822 123.866L143.372 179.382C143.726 181.983 146.031 183.868 148.65 183.698L177.868 181.801C180.48 181.631 182.518 179.488 182.558 176.871C182.83 159.09 183.81 128.874 186.087 116.908C186.323 115.665 187.113 114.606 188.166 113.904C231.174 85.2116 233.006 52.9367 238.991 46.3378C239.575 45.6933 240.48 45.4377 241.264 45.8154C250.228 50.1339 263.305 97.7067 270.668 120.476C271.422 122.808 270.411 125.347 268.248 126.501L257.339 132.319C257.113 132.439 256.889 132.582 256.686 132.739C246.981 140.26 252.255 147.893 257.001 152.954C258.461 154.512 260.814 154.845 262.762 153.974C306.159 134.569 322.556 163.66 326.279 185.227C326.8 188.246 329.692 190.375 332.677 189.681L371.68 180.62C374.35 179.999 377.022 181.645 377.67 184.308L380.866 197.451C380.955 197.816 381.17 198.233 381.486 198.032C382.328 197.494 384.238 194.725 387.83 186.396C387.941 186.137 388.074 185.877 388.242 185.65C392.93 179.3 407.685 182.158 418 191C427.401 200.809 439.207 213.692 445.607 220.473C447.476 222.452 450.561 222.472 452.672 220.754C475.751 201.974 510.193 202.093 528.32 206.612C530.96 207.271 533.75 205.931 534.925 203.477C549.651 172.741 583.545 178.379 607.51 179.372C610.456 179.494 612.696 176.908 612.971 173.972C615.852 143.151 671.362 149.593 674.598 174.699C675.168 179.125 679.701 183.843 683.954 182.492C703.81 176.185 705.566 179.95 707.893 184.94L707.919 184.997C708.785 186.854 710.928 187.713 712.947 187.362C828.815 167.193 793.985 304.092 792.5 313.5C791 323 745 332 737.5 313.5C730 295 719.5 300.5 723.5 316C726.551 327.824 682.546 335.867 670.555 336.89C669.233 337.002 667.987 337.551 666.969 338.401C655.128 348.285 637.981 341.969 630.312 337.196C630.099 337.064 629.885 336.951 629.661 336.84C627.95 335.993 623.691 333.39 617.512 328.336C616.847 327.792 616.061 327.418 615.216 327.266C563.968 318.009 502.541 318.558 507.5 325.5C512.229 332.121 507.565 340.978 500.7 345.726C499.932 346.257 498.999 346.486 498.065 346.495C477.171 346.687 463.317 358.461 457.191 366.671C455.796 368.541 453.414 369.53 451.176 368.872C443.567 366.635 432.321 363.371 424.309 361.173C421.134 360.302 418.073 362.752 417.799 366.033C416.47 381.954 409.25 390.772 405.004 393.674C404.674 393.9 404.298 394.067 403.913 394.175C375.621 402.07 348.301 335.093 346.5 348.5C337.5 415.5 292 418 286 416.5C282.242 415.56 280.078 410.269 279.075 406.096C278.625 404.224 277.336 402.605 275.448 402.225C274.445 402.024 273.287 401.833 272.04 401.699C269.928 401.47 268.056 402.859 267.19 404.8C261.565 417.409 251.43 423.346 245.779 425.144C244.947 425.408 244.031 425.36 243.194 425.113C179.742 406.411 171.247 417.294 175.33 287.77C175.419 284.945 173.162 282.5 170.335 282.5H152.436C149.699 282.5 147.472 284.778 147.432 287.514C145.791 401.088 138.098 411.982 104.141 419.853C103.723 419.949 103.267 419.994 102.839 419.974Z" stroke="black" stroke-width="12" mask="url(#path-2-outside-1_6_27)"/>
</g>
</g>
<g id="H">
<g id="Vector 1">
<mask id="path-3-outside-2_6_27" maskUnits="userSpaceOnUse" x="65.3381" y="107.941" width="185" height="286" fill="black">
<rect fill="white" x="65.3381" y="107.941" width="185" height="286"/>
<path d="M210 379C196.964 376.7 203.866 296.577 204.46 258.232C204.504 255.444 202.577 253.039 199.845 252.477C173.447 247.044 151.282 248.869 130.106 258.314C127.904 259.296 126.587 261.565 126.723 263.972C129.106 306.044 133.113 368.511 121 384.5C116.076 391 83.614 390.114 78 384.5C72.5 379 67.5 301 70 234C71.3368 198.175 75.5 95.5001 111.5 115.5C122.373 121.541 128.633 170.048 128.806 195.946C128.835 200.371 133.376 203.887 137.71 202.996C153.586 199.733 178.582 198.188 194.653 197.665C198.102 197.553 200.768 194.577 200.578 191.131C197.991 144.083 209.266 128.249 219 127.5C232 126.5 236.883 141.238 240 161.5C242 174.5 244.575 203 244.575 244C247.142 305.181 247.469 377.453 238.5 379C232.485 380.038 227 382 210 379Z"/>
</mask>
<path d="M210 379C196.964 376.7 203.866 296.577 204.46 258.232C204.504 255.444 202.577 253.039 199.845 252.477C173.447 247.044 151.282 248.869 130.106 258.314C127.904 259.296 126.587 261.565 126.723 263.972C129.106 306.044 133.113 368.511 121 384.5C116.076 391 83.614 390.114 78 384.5C72.5 379 67.5 301 70 234C71.3368 198.175 75.5 95.5001 111.5 115.5C122.373 121.541 128.633 170.048 128.806 195.946C128.835 200.371 133.376 203.887 137.71 202.996C153.586 199.733 178.582 198.188 194.653 197.665C198.102 197.553 200.768 194.577 200.578 191.131C197.991 144.083 209.266 128.249 219 127.5C232 126.5 236.883 141.238 240 161.5C242 174.5 244.575 203 244.575 244C247.142 305.181 247.469 377.453 238.5 379C232.485 380.038 227 382 210 379Z" fill="#4352B4"/>
<path d="M210 379C196.964 376.7 203.866 296.577 204.46 258.232C204.504 255.444 202.577 253.039 199.845 252.477C173.447 247.044 151.282 248.869 130.106 258.314C127.904 259.296 126.587 261.565 126.723 263.972C129.106 306.044 133.113 368.511 121 384.5C116.076 391 83.614 390.114 78 384.5C72.5 379 67.5 301 70 234C71.3368 198.175 75.5 95.5001 111.5 115.5C122.373 121.541 128.633 170.048 128.806 195.946C128.835 200.371 133.376 203.887 137.71 202.996C153.586 199.733 178.582 198.188 194.653 197.665C198.102 197.553 200.768 194.577 200.578 191.131C197.991 144.083 209.266 128.249 219 127.5C232 126.5 236.883 141.238 240 161.5C242 174.5 244.575 203 244.575 244C247.142 305.181 247.469 377.453 238.5 379C232.485 380.038 227 382 210 379Z" stroke="black" stroke-width="8" mask="url(#path-3-outside-2_6_27)"/>
</g>
<g id="Vector 2">
<mask id="path-4-outside-3_6_27" maskUnits="userSpaceOnUse" x="78.4923" y="45" width="71" height="72" fill="black">
<rect fill="white" x="78.4923" y="45" width="71" height="72"/>
<path d="M81.5 112.5C81.3333 100.167 83.8 70.8 95 52C100.5 62.8333 116.8 87.5998 138 100H111.5L81.5 112.5Z"/>
</mask>
<path d="M81.5 112.5C81.3333 100.167 83.8 70.8 95 52C100.5 62.8333 116.8 87.5998 138 100H111.5L81.5 112.5Z" fill="#4352B4"/>
<path d="M103 82L101.668 82.6905L101.668 82.6905L103 82ZM93.672 52.6974C93.6641 52.6823 93.739 52.8751 93.8515 53.5136C93.951 54.0791 94.0542 54.8232 94.1788 55.7501C94.4254 57.5857 94.7439 60.0478 95.2541 62.8802C96.2741 68.5415 98.0716 75.7538 101.668 82.6905L104.332 81.3095C100.928 74.7462 99.1998 67.8608 98.2066 62.3483C97.7104 59.5937 97.4005 57.1999 97.1521 55.3507C97.0291 54.4352 96.918 53.6296 96.806 52.9934C96.7068 52.43 96.5729 51.7688 96.328 51.3026L93.672 52.6974ZM101.668 82.6905C104.451 88.0565 106.145 91.7765 107.351 94.5273C108.538 97.2342 109.31 99.1468 110.189 100.728L112.811 99.2715C112.023 97.8532 111.345 96.1658 110.099 93.3227C108.872 90.5235 107.149 86.7435 104.332 81.3095L101.668 82.6905ZM81.5 112.5L78.5003 112.541L78.5602 116.975L82.6538 115.269L81.5 112.5ZM95 52L97.675 50.6419L95.2098 45.7862L92.4227 50.4646L95 52ZM138 100V103H149.071L139.515 97.4104L138 100ZM111.5 100V97H110.9L110.346 97.2308L111.5 100ZM84.4997 112.459C84.4189 106.477 84.9794 96.2416 86.9412 85.1998C88.9091 74.1239 92.244 62.4878 97.5773 53.5354L92.4227 50.4646C86.556 60.3122 83.0576 72.7595 81.0338 84.1502C79.0039 95.5751 78.4145 106.19 78.5003 112.541L84.4997 112.459ZM92.325 53.3581C97.9335 64.405 114.562 89.7661 136.485 102.59L139.515 97.4104C119.038 85.4336 103.067 61.2615 97.675 50.6419L92.325 53.3581ZM138 97H111.5V103H138V97ZM110.346 97.2308L80.3462 109.731L82.6538 115.269L112.654 102.769L110.346 97.2308Z" fill="black" mask="url(#path-4-outside-3_6_27)"/>
</g>
<g id="Vector 3">
<mask id="path-6-outside-4_6_27" maskUnits="userSpaceOnUse" x="195" y="64.5" width="59" height="63" fill="black">
<rect fill="white" x="195" y="64.5" width="59" height="63"/>
<path d="M210 108.5C216.167 105.5 226.1 97.1 238.5 71.5C241.833 76.8333 248.9 94.3 250.5 121.5C250.5 121.5 235.379 111.744 214.29 118.2C214.026 118.301 213.763 118.384 213.5 118.448L202 117.5L210 108.5Z"/>
</mask>
<path d="M210 108.5C216.167 105.5 226.1 97.1 238.5 71.5C241.833 76.8333 248.9 94.3 250.5 121.5C250.5 121.5 235.379 111.744 214.29 118.2C214.026 118.301 213.763 118.384 213.5 118.448L202 117.5L210 108.5Z" fill="#4352B4"/>
<path d="M214.29 118.2L214.729 119.634L214.779 119.619L214.828 119.6L214.29 118.2ZM213.851 116.765C213.581 116.848 213.31 116.933 213.039 117.021L213.961 119.876C214.218 119.793 214.474 119.712 214.729 119.634L213.851 116.765ZM237.057 71.0892C235.043 78.1622 231.459 88.823 227.176 98.1599C225.033 102.831 222.736 107.125 220.398 110.462C218.02 113.856 215.756 116.03 213.753 116.799L214.828 119.6C217.712 118.493 220.411 115.672 222.855 112.184C225.338 108.639 227.722 104.164 229.903 99.4107C234.266 89.8979 237.9 79.0854 239.942 71.9108L237.057 71.0892ZM210 108.5L208.688 105.802L208.153 106.062L207.758 106.507L210 108.5ZM238.5 71.5L241.044 69.91L238.167 65.3063L235.8 70.1922L238.5 71.5ZM250.5 121.5L248.874 124.021L253.842 127.226L253.495 121.324L250.5 121.5ZM202 117.5L199.758 115.507L195.767 119.996L201.753 120.49L202 117.5ZM214.29 118.2L213.412 115.331L213.312 115.362L213.215 115.399L214.29 118.2ZM213.5 118.448L213.253 121.438L213.738 121.478L214.211 121.363L213.5 118.448ZM211.312 111.198C218.359 107.769 228.675 98.6644 241.2 72.8078L235.8 70.1922C223.524 95.5356 213.974 103.231 208.688 105.802L211.312 111.198ZM235.956 73.09C238.955 77.8884 245.926 94.8318 247.505 121.676L253.495 121.324C251.874 93.7682 244.712 75.7782 241.044 69.91L235.956 73.09ZM204.242 119.493L212.242 110.493L207.758 106.507L199.758 115.507L204.242 119.493ZM250.5 121.5C252.126 118.979 252.125 118.978 252.124 118.978C252.123 118.977 252.122 118.976 252.121 118.976C252.119 118.974 252.117 118.973 252.114 118.971C252.109 118.968 252.103 118.964 252.097 118.96C252.083 118.951 252.066 118.94 252.045 118.927C252.002 118.901 251.945 118.866 251.874 118.823C251.731 118.737 251.53 118.618 251.273 118.475C250.759 118.187 250.02 117.797 249.074 117.357C247.185 116.477 244.459 115.391 241.043 114.522C234.201 112.782 224.579 111.913 213.412 115.331L215.168 121.068C225.09 118.031 233.573 118.813 239.564 120.337C242.564 121.1 244.937 122.049 246.541 122.796C247.343 123.169 247.95 123.491 248.345 123.712C248.543 123.823 248.687 123.908 248.776 123.961C248.82 123.988 248.851 124.007 248.867 124.017C248.875 124.022 248.88 124.025 248.881 124.026C248.882 124.026 248.881 124.026 248.88 124.025C248.879 124.025 248.879 124.024 248.877 124.023C248.877 124.023 248.876 124.022 248.876 124.022C248.875 124.022 248.874 124.021 250.5 121.5ZM213.747 115.459L202.247 114.51L201.753 120.49L213.253 121.438L213.747 115.459ZM213.215 115.399C213.062 115.458 212.92 115.502 212.788 115.534L214.211 121.363C214.606 121.267 214.991 121.144 215.366 121L213.215 115.399Z" fill="black" mask="url(#path-6-outside-4_6_27)"/>
</g>
</g>
<g id="I">
<path id="Vector 2_2" d="M287.5 223.5C258.333 228.5 268.473 274.5 273 294C279.5 322 287.5 383.094 314 371.5C341.5 359.469 325.833 303.667 321 284C314.487 257.5 311 219.471 287.5 223.5Z" fill="#4352B4" stroke="black" stroke-width="3"/>
<path id="Vector 3_2" d="M303 191.5C309 223 258.5 216 269 194C249.8 181.6 269 169.5 273.5 178C269 161 301 164 295.5 176.5C308 170.5 310.5 186.5 303 191.5Z" fill="#F1B456" stroke="black" stroke-width="3"/>
</g>
<g id="K">
<path id="Vector 4" d="M363.5 352C350.3 330.8 335 246.5 329 207C329 207 351.5 187.5 356 190C360.5 192.5 373 257 373 257L395.237 203.063C395.913 201.423 397.862 200.723 399.412 201.587C414.09 209.775 421.754 217.083 431.998 231.381C432.865 232.591 432.699 234.258 431.617 235.281L396.5 268.5C396.5 268.5 471.5 323.5 471.5 327.5C471.5 331.5 428.5 342.5 428.5 342.5L384.5 303.5C379.706 305.212 393.304 345.858 396.5 349.5C399.696 353.142 363.5 352 363.5 352Z" fill="#F1B456" stroke="black" stroke-width="3"/>
</g>
<g id="A">
<path id="Vector 5" d="M546.5 292C521.3 261.2 519.667 234.833 522 225.5C426 191.5 449 332.219 508 299C518.363 293.165 521.667 291.667 523 293C525.4 299.8 528 300.5 529.5 300.5C534 300.5 544 298 546.5 292Z" fill="#4352B4" stroke="black" stroke-width="3"/>
<path id="Vector 6" d="M505.5 243.5C502 256 506.5 266.5 512 276.5C495.633 289.957 481.489 278.923 478.133 266C474.927 253.657 481.562 239.592 505.5 243.5Z" fill="white" stroke="black" stroke-width="3"/>
</g>
<g id="R">
<path id="Vector 6_2" d="M600.5 294.5C599.915 300.936 584.5 301.333 579.5 300.5C558.5 267.333 542.333 200.406 565 197.5C623.5 190 618.591 197.5 613 218C608.5 234.5 604 230.5 584.5 232.5C583 249.5 602 278 600.5 294.5Z" fill="#F1B456" stroke="black" stroke-width="3"/>
</g>
<g id="I_2">
<path id="Vector 7" d="M661.5 264C661.1 214.8 650.5 206 642.5 206C625.5 206 624 235 624 264C624 293 629.5 327.5 648 326.5C664.056 325.632 661.793 300 661.5 264Z" fill="#4352B4" stroke="black" stroke-width="3"/>
<path id="Vector 8" d="M631 186.5C628.871 175.5 637.667 172 642.5 172.5C651 172.5 653 176 654.5 184.5C655.7 191.3 650 196.5 643.5 198C639 197 632.742 195.5 631 186.5Z" fill="#F1B456" stroke="black" stroke-width="3"/>
</g>
<g id="N">
<path id="Vector 8_2" d="M698 197L675 201C675 201 676.719 239.149 679 263.5C681.238 287.397 686.5 324.5 686.5 324.5C701.3 322.1 710.667 314.833 713.5 311.5C708.54 281.861 702.167 261.551 704.5 249.5C708.721 227.694 726.015 229.787 734.5 246.5C740.568 258.452 741.749 277.484 741.051 298.077C741.021 298.977 741.397 299.854 742.081 300.44C758.416 314.43 767.906 312.811 775 309.5C782.5 306 781 288 775 249.5C770.6 183.1 722.5 195.167 700 208.5L698 197Z" fill="#4352B4" stroke="black" stroke-width="3"/>
</g>
</g>
</svg>
